<svg xmlns="http://www.w3.org/2000/svg" width="600" height="400"><path d="M241,207L206,208L249,288Z" fill="rgb(237,60,74)" stroke="rgb(237,60,74)" stroke-width="1.51"/><path d="M206,208L167,252L249,288Z" fill="rgb(235,68,83)" stroke="rgb(235,68,83)" stroke-width="1.51"/><path d="M167,252L206,323L249,288Z" fill="rgb(235,84,95)" stroke="rgb(235,84,95)" stroke-width="1.51"/><path d="M249,288L314,254L241,207Z" fill="rgb(241,65,72)" stroke="rgb(241,65,72)" stroke-width="1.51"/><path d="M255,337L314,254L249,288Z" fill="rgb(242,84,85)" stroke="rgb(242,84,85)" stroke-width="1.51"/><path d="M206,323L255,337L249,288Z" fill="rgb(238,94,99)" stroke="rgb(238,94,99)" stroke-width="1.51"/><path d="M206,208L108,222L167,252Z" fill="rgb(229,59,84)" stroke="rgb(229,59,84)" stroke-width="1.51"/><path d="M167,252L108,297L206,323Z" fill="rgb(229,86,104)" stroke="rgb(229,86,104)" stroke-width="1.51"/><path d="M108,222L108,297L167,252Z" fill="rgb(226,74,99)" stroke="rgb(226,74,99)" stroke-width="1.51"/><path d="M206,323L206,401L255,337Z" fill="rgb(236,107,114)" stroke="rgb(236,107,114)" stroke-width="1.51"/><path d="M314,254L358,203L241,207Z" fill="rgb(244,51,58)" stroke="rgb(244,51,58)" stroke-width="1.51"/><path d="M241,207L200,107L206,208Z" fill="rgb(230,43,73)" stroke="rgb(230,43,73)" stroke-width="1.51"/><path d="M416,280L358,203L314,254Z" fill="rgb(245,81,78)" stroke="rgb(245,81,78)" stroke-width="1.51"/><path d="M268,106L200,107L241,207Z" fill="rgb(227,45,78)" stroke="rgb(227,45,78)" stroke-width="1.51"/><path d="M206,208L93,121L108,222Z" fill="rgb(223,47,84)" stroke="rgb(223,47,84)" stroke-width="1.51"/><path d="M255,337L335,350L314,254Z" fill="rgb(245,92,87)" stroke="rgb(245,92,87)" stroke-width="1.51"/><path d="M350,143L268,106L241,207Z" fill="rgb(234,40,66)" stroke="rgb(234,40,66)" stroke-width="1.51"/><path d="M87,352L206,401L206,323Z" fill="rgb(229,110,125)" stroke="rgb(229,110,125)" stroke-width="1.51"/><path d="M255,337L261,421L335,350Z" fill="rgb(244,111,108)" stroke="rgb(244,111,108)" stroke-width="1.51"/><path d="M358,203L350,143L241,207Z" fill="rgb(241,43,59)" stroke="rgb(241,43,59)" stroke-width="1.51"/><path d="M108,297L87,352L206,323Z" fill="rgb(225,99,119)" stroke="rgb(225,99,119)" stroke-width="1.51"/><path d="M31,300L87,352L108,297Z" fill="rgb(218,97,127)" stroke="rgb(218,97,127)" stroke-width="1.51"/><path d="M93,121L56,191L108,222Z" fill="rgb(216,50,93)" stroke="rgb(216,50,93)" stroke-width="1.51"/><path d="M246,62L201,77L200,107Z" fill="rgb(215,51,96)" stroke="rgb(215,51,96)" stroke-width="1.51"/><path d="M206,401L261,421L255,337Z" fill="rgb(238,118,121)" stroke="rgb(238,118,121)" stroke-width="1.51"/><path d="M108,222L31,300L108,297Z" fill="rgb(220,81,111)" stroke="rgb(220,81,111)" stroke-width="1.51"/><path d="M93,121L206,208L200,107Z" fill="rgb(220,48,89)" stroke="rgb(220,48,89)" stroke-width="1.51"/><path d="M335,350L391,325L314,254Z" fill="rgb(246,102,96)" stroke="rgb(246,102,96)" stroke-width="1.51"/><path d="M358,203L399,135L350,143Z" fill="rgb(238,65,76)" stroke="rgb(238,65,76)" stroke-width="1.51"/><path d="M346,434L391,325L335,350Z" fill="rgb(245,124,118)" stroke="rgb(245,124,118)" stroke-width="1.51"/><path d="M107,75L93,121L200,107Z" fill="rgb(209,54,104)" stroke="rgb(209,54,104)" stroke-width="1.51"/><path d="M268,106L246,62L200,107Z" fill="rgb(219,49,90)" stroke="rgb(219,49,90)" stroke-width="1.51"/><path d="M309,41L246,62L268,106Z" fill="rgb(220,48,89)" stroke="rgb(220,48,89)" stroke-width="1.51"/><path d="M391,325L416,280L314,254Z" fill="rgb(246,99,94)" stroke="rgb(246,99,94)" stroke-width="1.51"/><path d="M416,280L418,216L358,203Z" fill="rgb(246,85,82)" stroke="rgb(246,85,82)" stroke-width="1.51"/><path d="M56,191L31,300L108,222Z" fill="rgb(218,68,103)" stroke="rgb(218,68,103)" stroke-width="1.51"/><path d="M87,352L125,425L206,401Z" fill="rgb(224,121,141)" stroke="rgb(224,121,141)" stroke-width="1.51"/><path d="M163,492L276,494L261,421Z" fill="rgb(236,122,127)" stroke="rgb(236,122,127)" stroke-width="1.51"/><path d="M18,447L125,425L87,352Z" fill="rgb(214,124,155)" stroke="rgb(214,124,155)" stroke-width="1.51"/><path d="M350,143L309,41L268,106Z" fill="rgb(227,49,80)" stroke="rgb(227,49,80)" stroke-width="1.51"/><path d="M418,216L399,135L358,203Z" fill="rgb(242,71,74)" stroke="rgb(242,71,74)" stroke-width="1.51"/><path d="M93,121L14,101L56,191Z" fill="rgb(205,55,108)" stroke="rgb(205,55,108)" stroke-width="1.51"/><path d="M201,77L107,75L200,107Z" fill="rgb(210,53,103)" stroke="rgb(210,53,103)" stroke-width="1.51"/><path d="M182,-48L107,75L201,77Z" fill="rgb(199,57,116)" stroke="rgb(199,57,116)" stroke-width="1.51"/><path d="M261,421L346,434L335,350Z" fill="rgb(245,124,118)" stroke="rgb(245,124,118)" stroke-width="1.51"/><path d="M491,339L484,283L416,280Z" fill="rgb(245,125,118)" stroke="rgb(245,125,118)" stroke-width="1.51"/><path d="M276,494L346,434L261,421Z" fill="rgb(245,121,116)" stroke="rgb(245,121,116)" stroke-width="1.51"/><path d="M246,62L182,-48L201,77Z" fill="rgb(205,55,109)" stroke="rgb(205,55,109)" stroke-width="1.51"/><path d="M402,58L309,41L350,143Z" fill="rgb(225,65,93)" stroke="rgb(225,65,93)" stroke-width="1.51"/><path d="M-35,324L13,373L31,300Z" fill="rgb(207,104,144)" stroke="rgb(207,104,144)" stroke-width="1.51"/><path d="M31,300L13,373L87,352Z" fill="rgb(212,106,141)" stroke="rgb(212,106,141)" stroke-width="1.51"/><path d="M163,492L261,421L206,401Z" fill="rgb(233,122,131)" stroke="rgb(233,122,131)" stroke-width="1.51"/><path d="M125,425L163,492L206,401Z" fill="rgb(227,123,139)" stroke="rgb(227,123,139)" stroke-width="1.51"/><path d="M93,519L163,492L125,425Z" fill="rgb(222,123,146)" stroke="rgb(222,123,146)" stroke-width="1.51"/><path d="M107,75L14,101L93,121Z" fill="rgb(200,57,115)" stroke="rgb(200,57,115)" stroke-width="1.51"/><path d="M56,191L-38,281L31,300Z" fill="rgb(212,78,118)" stroke="rgb(212,78,118)" stroke-width="1.51"/><path d="M399,135L402,58L350,143Z" fill="rgb(231,72,91)" stroke="rgb(231,72,91)" stroke-width="1.51"/><path d="M503,124L402,58L399,135Z" fill="rgb(229,86,104)" stroke="rgb(229,86,104)" stroke-width="1.51"/><path d="M418,216L478,181L399,135Z" fill="rgb(242,82,85)" stroke="rgb(242,82,85)" stroke-width="1.51"/><path d="M416,280L484,283L418,216Z" fill="rgb(246,106,99)" stroke="rgb(246,106,99)" stroke-width="1.51"/><path d="M491,339L416,280L391,325Z" fill="rgb(245,123,116)" stroke="rgb(245,123,116)" stroke-width="1.51"/><path d="M309,41L288,-5L246,62Z" fill="rgb(214,51,97)" stroke="rgb(214,51,97)" stroke-width="1.51"/><path d="M107,75L32,38L14,101Z" fill="rgb(192,60,125)" stroke="rgb(192,60,125)" stroke-width="1.51"/><path d="M365,-38L288,-5L309,41Z" fill="rgb(210,60,106)" stroke="rgb(210,60,106)" stroke-width="1.51"/><path d="M484,283L478,181L418,216Z" fill="rgb(246,99,94)" stroke="rgb(246,99,94)" stroke-width="1.51"/><path d="M-46,192L-38,281L56,191Z" fill="rgb(210,63,108)" stroke="rgb(210,63,108)" stroke-width="1.51"/><path d="M-38,281L-35,324L31,300Z" fill="rgb(208,94,135)" stroke="rgb(208,94,135)" stroke-width="1.51"/><path d="M346,434L430,428L391,325Z" fill="rgb(244,139,134)" stroke="rgb(244,139,134)" stroke-width="1.51"/><path d="M419,474L430,428L346,434Z" fill="rgb(243,142,137)" stroke="rgb(243,142,137)" stroke-width="1.51"/><path d="M-25,124L-46,192L56,191Z" fill="rgb(204,55,110)" stroke="rgb(204,55,110)" stroke-width="1.51"/><path d="M-86,432L-49,418L-129,355Z" fill="rgb(202,125,168)" stroke="rgb(202,125,168)" stroke-width="1.51"/><path d="M14,101L-25,124L56,191Z" fill="rgb(201,57,115)" stroke="rgb(201,57,115)" stroke-width="1.51"/><path d="M430,428L491,339L391,325Z" fill="rgb(243,139,134)" stroke="rgb(243,139,134)" stroke-width="1.51"/><path d="M539,228L503,124L478,181Z" fill="rgb(242,101,101)" stroke="rgb(242,101,101)" stroke-width="1.51"/><path d="M13,373L18,447L87,352Z" fill="rgb(209,122,158)" stroke="rgb(209,122,158)" stroke-width="1.51"/><path d="M-49,418L18,447L13,373Z" fill="rgb(202,125,168)" stroke="rgb(202,125,168)" stroke-width="1.51"/><path d="M14,101L-55,24L-25,124Z" fill="rgb(187,61,130)" stroke="rgb(187,61,130)" stroke-width="1.51"/><path d="M113,-43L32,38L107,75Z" fill="rgb(186,61,131)" stroke="rgb(186,61,131)" stroke-width="1.51"/><path d="M276,494L317,524L346,434Z" fill="rgb(245,124,118)" stroke="rgb(245,124,118)" stroke-width="1.51"/><path d="M163,492L317,524L276,494Z" fill="rgb(239,122,124)" stroke="rgb(239,122,124)" stroke-width="1.51"/><path d="M430,428L465,437L491,339Z" fill="rgb(241,154,151)" stroke="rgb(241,154,151)" stroke-width="1.51"/><path d="M317,524L419,474L346,434Z" fill="rgb(244,134,128)" stroke="rgb(244,134,128)" stroke-width="1.51"/><path d="M18,447L93,519L125,425Z" fill="rgb(214,124,154)" stroke="rgb(214,124,154)" stroke-width="1.51"/><path d="M163,492L93,519L317,524Z" fill="rgb(231,123,134)" stroke="rgb(231,123,134)" stroke-width="1.51"/><path d="M288,-5L182,-48L246,62Z" fill="rgb(203,56,112)" stroke="rgb(203,56,112)" stroke-width="1.51"/><path d="M419,474L465,437L430,428Z" fill="rgb(242,150,146)" stroke="rgb(242,150,146)" stroke-width="1.51"/><path d="M478,181L503,124L399,135Z" fill="rgb(236,91,99)" stroke="rgb(236,91,99)" stroke-width="1.51"/><path d="M539,228L478,181L484,283Z" fill="rgb(246,109,103)" stroke="rgb(246,109,103)" stroke-width="1.51"/><path d="M182,-48L113,-43L107,75Z" fill="rgb(188,61,129)" stroke="rgb(188,61,129)" stroke-width="1.51"/><path d="M547,265L539,228L484,283Z" fill="rgb(245,124,118)" stroke="rgb(245,124,118)" stroke-width="1.51"/><path d="M547,265L484,283L491,339Z" fill="rgb(244,132,126)" stroke="rgb(244,132,126)" stroke-width="1.51"/><path d="M18,447L48,515L93,519Z" fill="rgb(210,124,159)" stroke="rgb(210,124,159)" stroke-width="1.51"/><path d="M288,-5L240,-83L182,-48Z" fill="rgb(202,56,112)" stroke="rgb(202,56,112)" stroke-width="1.51"/><path d="M402,58L365,-38L309,41Z" fill="rgb(214,70,109)" stroke="rgb(214,70,109)" stroke-width="1.51"/><path d="M406,-29L365,-38L402,58Z" fill="rgb(210,79,121)" stroke="rgb(210,79,121)" stroke-width="1.51"/><path d="M503,124L462,33L402,58Z" fill="rgb(223,92,117)" stroke="rgb(223,92,117)" stroke-width="1.51"/><path d="M18,447L-63,490L48,515Z" fill="rgb(202,125,168)" stroke="rgb(202,125,168)" stroke-width="1.51"/><path d="M-35,324L-49,418L13,373Z" fill="rgb(204,116,158)" stroke="rgb(204,116,158)" stroke-width="1.51"/><path d="M-114,290L-35,324L-38,281Z" fill="rgb(208,93,134)" stroke="rgb(208,93,134)" stroke-width="1.51"/><path d="M553,344L547,265L491,339Z" fill="rgb(243,143,138)" stroke="rgb(243,143,138)" stroke-width="1.51"/><path d="M462,33L406,-29L402,58Z" fill="rgb(213,87,123)" stroke="rgb(213,87,123)" stroke-width="1.51"/><path d="M182,-48L136,-102L113,-43Z" fill="rgb(190,60,127)" stroke="rgb(190,60,127)" stroke-width="1.51"/><path d="M365,-38L240,-83L288,-5Z" fill="rgb(210,53,102)" stroke="rgb(210,53,102)" stroke-width="1.51"/><path d="M356,-120L240,-83L365,-38Z" fill="rgb(210,60,106)" stroke="rgb(210,60,106)" stroke-width="1.51"/><path d="M113,-43L14,-14L32,38Z" fill="rgb(177,64,142)" stroke="rgb(177,64,142)" stroke-width="1.51"/><path d="M32,38L-55,24L14,101Z" fill="rgb(181,63,137)" stroke="rgb(181,63,137)" stroke-width="1.51"/><path d="M-136,172L-114,290L-46,192Z" fill="rgb(210,62,107)" stroke="rgb(210,62,107)" stroke-width="1.51"/><path d="M32,-119L14,-14L113,-43Z" fill="rgb(177,64,142)" stroke="rgb(177,64,142)" stroke-width="1.51"/><path d="M-46,192L-114,290L-38,281Z" fill="rgb(210,77,119)" stroke="rgb(210,77,119)" stroke-width="1.51"/><path d="M-114,132L-46,192L-25,124Z" fill="rgb(201,57,115)" stroke="rgb(201,57,115)" stroke-width="1.51"/><path d="M553,435L553,344L491,339Z" fill="rgb(240,160,158)" stroke="rgb(240,160,158)" stroke-width="1.51"/><path d="M240,-83L179,-103L182,-48Z" fill="rgb(198,58,118)" stroke="rgb(198,58,118)" stroke-width="1.51"/><path d="M356,-120L179,-103L240,-83Z" fill="rgb(205,55,109)" stroke="rgb(205,55,109)" stroke-width="1.51"/><path d="M-55,24L-114,132L-25,124Z" fill="rgb(190,60,128)" stroke="rgb(190,60,128)" stroke-width="1.51"/><path d="M14,-14L-55,24L32,38Z" fill="rgb(172,65,147)" stroke="rgb(172,65,147)" stroke-width="1.51"/><path d="M-49,418L-63,490L18,447Z" fill="rgb(202,125,168)" stroke="rgb(202,125,168)" stroke-width="1.51"/><path d="M-129,355L-49,418L-35,324Z" fill="rgb(204,114,156)" stroke="rgb(204,114,156)" stroke-width="1.51"/><path d="M179,-103L136,-102L182,-48Z" fill="rgb(193,59,124)" stroke="rgb(193,59,124)" stroke-width="1.51"/><path d="M14,-14L-21,-20L-55,24Z" fill="rgb(168,66,151)" stroke="rgb(168,66,151)" stroke-width="1.51"/><path d="M406,-29L387,-77L365,-38Z" fill="rgb(210,78,120)" stroke="rgb(210,78,120)" stroke-width="1.51"/><path d="M471,-30L387,-77L406,-29Z" fill="rgb(209,87,128)" stroke="rgb(209,87,128)" stroke-width="1.51"/><path d="M32,-119L-21,-20L14,-14Z" fill="rgb(170,66,149)" stroke="rgb(170,66,149)" stroke-width="1.51"/><path d="M465,437L553,435L491,339Z" fill="rgb(239,162,161)" stroke="rgb(239,162,161)" stroke-width="1.51"/><path d="M419,474L477,513L465,437Z" fill="rgb(241,153,150)" stroke="rgb(241,153,150)" stroke-width="1.51"/><path d="M317,524L477,513L419,474Z" fill="rgb(243,143,138)" stroke="rgb(243,143,138)" stroke-width="1.51"/><path d="M-114,132L-136,172L-46,192Z" fill="rgb(204,55,110)" stroke="rgb(204,55,110)" stroke-width="1.51"/><path d="M-122,38L-136,172L-114,132Z" fill="rgb(194,59,123)" stroke="rgb(194,59,123)" stroke-width="1.51"/><path d="M-114,290L-129,355L-35,324Z" fill="rgb(207,101,142)" stroke="rgb(207,101,142)" stroke-width="1.51"/><path d="M-136,172L-129,355L-114,290Z" fill="rgb(209,84,125)" stroke="rgb(209,84,125)" stroke-width="1.51"/><path d="M462,33L471,-30L406,-29Z" fill="rgb(208,93,134)" stroke="rgb(208,93,134)" stroke-width="1.51"/><path d="M560,41L471,-30L462,33Z" fill="rgb(210,103,141)" stroke="rgb(210,103,141)" stroke-width="1.51"/><path d="M560,41L462,33L503,124Z" fill="rgb(220,105,130)" stroke="rgb(220,105,130)" stroke-width="1.51"/><path d="M628,186L539,228L547,265Z" fill="rgb(245,124,117)" stroke="rgb(245,124,117)" stroke-width="1.51"/><path d="M628,186L581,139L539,228Z" fill="rgb(242,118,116)" stroke="rgb(242,118,116)" stroke-width="1.51"/><path d="M539,228L581,139L503,124Z" fill="rgb(239,109,112)" stroke="rgb(239,109,112)" stroke-width="1.51"/><path d="M-86,432L-63,490L-49,418Z" fill="rgb(202,125,168)" stroke="rgb(202,125,168)" stroke-width="1.51"/><path d="M-128,512L-63,490L-86,432Z" fill="rgb(202,125,168)" stroke="rgb(202,125,168)" stroke-width="1.51"/><path d="M658,270L628,186L547,265Z" fill="rgb(244,134,128)" stroke="rgb(244,134,128)" stroke-width="1.51"/><path d="M477,513L553,435L465,437Z" fill="rgb(239,161,160)" stroke="rgb(239,161,160)" stroke-width="1.51"/><path d="M387,-77L356,-120L365,-38Z" fill="rgb(210,73,117)" stroke="rgb(210,73,117)" stroke-width="1.51"/><path d="M179,-103L32,-119L136,-102Z" fill="rgb(186,61,132)" stroke="rgb(186,61,132)" stroke-width="1.51"/><path d="M472,-113L356,-120L387,-77Z" fill="rgb(209,83,124)" stroke="rgb(209,83,124)" stroke-width="1.51"/><path d="M581,139L560,41L503,124Z" fill="rgb(227,112,130)" stroke="rgb(227,112,130)" stroke-width="1.51"/><path d="M-55,24L-122,38L-114,132Z" fill="rgb(183,62,135)" stroke="rgb(183,62,135)" stroke-width="1.51"/><path d="M-86,-39L-122,38L-55,24Z" fill="rgb(170,66,149)" stroke="rgb(170,66,149)" stroke-width="1.51"/><path d="M658,270L547,265L553,344Z" fill="rgb(242,148,143)" stroke="rgb(242,148,143)" stroke-width="1.51"/><path d="M581,139L638,66L560,41Z" fill="rgb(221,122,145)" stroke="rgb(221,122,145)" stroke-width="1.51"/><path d="M-21,-20L-86,-39L-55,24Z" fill="rgb(168,66,151)" stroke="rgb(168,66,151)" stroke-width="1.51"/><path d="M136,-102L32,-119L113,-43Z" fill="rgb(183,62,135)" stroke="rgb(183,62,135)" stroke-width="1.51"/><path d="M356,-120L32,-119L179,-103Z" fill="rgb(196,58,120)" stroke="rgb(196,58,120)" stroke-width="1.51"/><path d="M553,435L623,377L553,344Z" fill="rgb(236,173,173)" stroke="rgb(236,173,173)" stroke-width="1.51"/><path d="M626,437L623,377L553,435Z" fill="rgb(233,181,184)" stroke="rgb(233,181,184)" stroke-width="1.51"/><path d="M-56,-114L-86,-39L-21,-20Z" fill="rgb(168,66,151)" stroke="rgb(168,66,151)" stroke-width="1.51"/><path d="M646,-16L561,-24L560,41Z" fill="rgb(202,123,166)" stroke="rgb(202,123,166)" stroke-width="1.51"/><path d="M560,41L561,-24L471,-30Z" fill="rgb(205,111,152)" stroke="rgb(205,111,152)" stroke-width="1.51"/><path d="M471,-30L472,-113L387,-77Z" fill="rgb(208,91,133)" stroke="rgb(208,91,133)" stroke-width="1.51"/><path d="M628,186L653,152L581,139Z" fill="rgb(237,122,126)" stroke="rgb(237,122,126)" stroke-width="1.51"/><path d="M623,377L658,270L553,344Z" fill="rgb(239,161,160)" stroke="rgb(239,161,160)" stroke-width="1.51"/><path d="M543,-118L472,-113L471,-30Z" fill="rgb(207,103,144)" stroke="rgb(207,103,144)" stroke-width="1.51"/><path d="M710,192L653,152L628,186Z" fill="rgb(241,122,122)" stroke="rgb(241,122,122)" stroke-width="1.51"/><path d="M-63,490L-128,512L48,515Z" fill="rgb(202,125,168)" stroke="rgb(202,125,168)" stroke-width="1.51"/><path d="M48,515L-128,512L93,519Z" fill="rgb(202,125,167)" stroke="rgb(202,125,167)" stroke-width="1.51"/><path d="M-129,355L-128,512L-86,432Z" fill="rgb(202,125,168)" stroke="rgb(202,125,168)" stroke-width="1.51"/><path d="M-136,172L-128,512L-129,355Z" fill="rgb(206,108,149)" stroke="rgb(206,108,149)" stroke-width="1.51"/><path d="M711,370L724,252L658,270Z" fill="rgb(241,151,148)" stroke="rgb(241,151,148)" stroke-width="1.51"/><path d="M581,521L626,437L553,435Z" fill="rgb(234,179,181)" stroke="rgb(234,179,181)" stroke-width="1.51"/><path d="M477,513L581,521L553,435Z" fill="rgb(237,169,169)" stroke="rgb(237,169,169)" stroke-width="1.51"/><path d="M317,524L581,521L477,513Z" fill="rgb(241,154,151)" stroke="rgb(241,154,151)" stroke-width="1.51"/><path d="M653,152L638,66L581,139Z" fill="rgb(229,123,137)" stroke="rgb(229,123,137)" stroke-width="1.51"/><path d="M32,-119L-56,-114L-21,-20Z" fill="rgb(168,66,151)" stroke="rgb(168,66,151)" stroke-width="1.51"/><path d="M-86,-39L-111,-94L-122,38Z" fill="rgb(168,66,151)" stroke="rgb(168,66,151)" stroke-width="1.51"/><path d="M-56,-114L-111,-94L-86,-39Z" fill="rgb(168,66,151)" stroke="rgb(168,66,151)" stroke-width="1.51"/><path d="M-122,38L-111,-94L-136,172Z" fill="rgb(177,64,141)" stroke="rgb(177,64,141)" stroke-width="1.51"/><path d="M622,-95L543,-118L561,-24Z" fill="rgb(203,120,162)" stroke="rgb(203,120,162)" stroke-width="1.51"/><path d="M561,-24L543,-118L471,-30Z" fill="rgb(205,110,151)" stroke="rgb(205,110,151)" stroke-width="1.51"/><path d="M472,-113L543,-118L356,-120Z" fill="rgb(208,95,136)" stroke="rgb(208,95,136)" stroke-width="1.51"/><path d="M658,270L710,192L628,186Z" fill="rgb(245,127,120)" stroke="rgb(245,127,120)" stroke-width="1.51"/><path d="M653,152L705,140L638,66Z" fill="rgb(229,123,136)" stroke="rgb(229,123,136)" stroke-width="1.51"/><path d="M638,66L646,-16L560,41Z" fill="rgb(209,124,160)" stroke="rgb(209,124,160)" stroke-width="1.51"/><path d="M724,252L710,192L658,270Z" fill="rgb(244,133,128)" stroke="rgb(244,133,128)" stroke-width="1.51"/><path d="M710,192L705,140L653,152Z" fill="rgb(238,122,125)" stroke="rgb(238,122,125)" stroke-width="1.51"/><path d="M720,70L646,-16L638,66Z" fill="rgb(212,124,157)" stroke="rgb(212,124,157)" stroke-width="1.51"/><path d="M705,408L711,370L623,377Z" fill="rgb(235,177,178)" stroke="rgb(235,177,178)" stroke-width="1.51"/><path d="M581,521L657,498L626,437Z" fill="rgb(233,181,184)" stroke="rgb(233,181,184)" stroke-width="1.51"/><path d="M710,192L720,70L705,140Z" fill="rgb(232,122,133)" stroke="rgb(232,122,133)" stroke-width="1.51"/><path d="M711,370L658,270L623,377Z" fill="rgb(238,164,162)" stroke="rgb(238,164,162)" stroke-width="1.51"/><path d="M705,408L623,377L626,437Z" fill="rgb(233,181,184)" stroke="rgb(233,181,184)" stroke-width="1.51"/><path d="M657,498L705,408L626,437Z" fill="rgb(233,181,184)" stroke="rgb(233,181,184)" stroke-width="1.51"/><path d="M709,-38L622,-95L646,-16Z" fill="rgb(202,125,168)" stroke="rgb(202,125,168)" stroke-width="1.51"/><path d="M646,-16L622,-95L561,-24Z" fill="rgb(202,125,168)" stroke="rgb(202,125,168)" stroke-width="1.51"/><path d="M705,140L720,70L638,66Z" fill="rgb(223,123,144)" stroke="rgb(223,123,144)" stroke-width="1.51"/><path d="M724,252L720,70L710,192Z" fill="rgb(240,122,123)" stroke="rgb(240,122,123)" stroke-width="1.51"/><path d="M657,498L702,527L705,408Z" fill="rgb(233,181,184)" stroke="rgb(233,181,184)" stroke-width="1.51"/><path d="M705,408L702,527L711,370Z" fill="rgb(233,181,184)" stroke="rgb(233,181,184)" stroke-width="1.51"/><path d="M711,370L702,527L724,252Z" fill="rgb(235,176,178)" stroke="rgb(235,176,178)" stroke-width="1.51"/><path d="M581,521L702,527L657,498Z" fill="rgb(233,181,184)" stroke="rgb(233,181,184)" stroke-width="1.51"/><path d="M317,524L702,527L581,521Z" fill="rgb(238,168,168)" stroke="rgb(238,168,168)" stroke-width="1.51"/><path d="M720,70L709,-38L646,-16Z" fill="rgb(203,125,166)" stroke="rgb(203,125,166)" stroke-width="1.51"/><path d="M709,-38L686,-116L622,-95Z" fill="rgb(202,125,168)" stroke="rgb(202,125,168)" stroke-width="1.51"/><path d="M622,-95L686,-116L543,-118Z" fill="rgb(202,125,168)" stroke="rgb(202,125,168)" stroke-width="1.51"/></svg>